<?xml version="1.0" encoding="UTF-8"?>
<svg version="1.1" xmlns="http://www.w3.org/2000/svg" width="2220" height="720">
<path d="M0 0 C0.67530762 0.20367187 1.35061523 0.40734375 2.04638672 0.6171875 C29.29370935 9.05506806 49.9696803 28.6710584 64 53 C64.7748877 54.33442139 64.7748877 54.33442139 65.56542969 55.69580078 C69.06226198 61.71855938 72.54013177 67.75204183 76.00791931 73.79156494 C79.49615646 79.86631374 82.99788137 85.9332473 86.5 92 C87.75006112 94.16663141 89.000061 96.33329814 90.25 98.5 C90.86875 99.5725 91.4875 100.645 92.125 101.75 C112.75 137.50000001 112.75 137.50000001 114.62524414 140.75048828 C115.87435518 142.91557071 117.12354129 145.08060982 118.37280273 147.24560547 C121.51202309 152.68615706 124.64990563 158.12747216 127.78515625 163.5703125 C133.83055159 174.06232094 139.89110219 184.54481676 146 195 C152.74701194 206.54729516 159.43339318 218.12902027 166.10888672 229.71777344 C169.23680148 235.14659942 172.36858448 240.57319281 175.5 246 C176.75001879 248.16665583 178.00001878 250.3333225 179.25 252.5 C179.86875 253.5725 180.4875 254.645 181.125 255.75 C183 259 184.875 262.25 186.75 265.5 C187.36931396 266.5734668 187.98862793 267.64693359 188.62670898 268.75292969 C189.87104998 270.90980903 191.11535364 273.06670992 192.35961914 275.22363281 C196.23254709 281.93718161 200.10661928 288.65006778 203.98266602 295.36181641 C205.27256772 297.59751715 206.56085164 299.83415217 207.84741211 302.07177734 C211.63142723 308.65286947 211.63142723 308.65286947 215.5078125 315.1796875 C230.57180911 340.28749233 234.80895738 369.56258978 228 398 C220.5853169 426.00712053 203.08180571 450.40115347 178.00927734 465.17285156 C161.92939337 474.15809106 145.09661974 479.29839218 126.625 479.3359375 C125.46105713 479.3425943 124.29711426 479.3492511 123.09790039 479.35610962 C120.64389614 479.36618754 118.18986476 479.37092815 115.73583984 479.37060547 C112.03826008 479.37495499 108.34189862 479.41126417 104.64453125 479.44921875 C80.47572257 479.56484682 58.48270824 475.4256407 38 462 C36.65035156 461.12601563 36.65035156 461.12601563 35.2734375 460.234375 C24.02393076 452.51857499 14.15949507 442.62565628 7 431 C6.37609375 429.99710938 5.7521875 428.99421875 5.109375 427.9609375 C-1.90368162 416.52584684 -8.48747262 404.82216915 -15.16601562 393.19042969 C-16.8193738 390.31422034 -18.47879035 387.44162912 -20.140625 384.5703125 C-25.51926284 375.25208959 -30.73002743 365.85818451 -35.8125 356.375 C-83.03711932 267.98219367 -83.03711932 267.98219367 -166.65234375 217.5390625 C-179.18260672 213.81131499 -192.37774102 210.8788292 -205.48046875 210.8671875 C-206.17457352 210.86623077 -206.86867828 210.86527405 -207.58381653 210.86428833 C-209.04521781 210.86361196 -210.50662218 210.8654281 -211.96801758 210.86962891 C-214.1642969 210.87494385 -216.3603679 210.86968653 -218.55664062 210.86328125 C-226.74628895 210.85981268 -234.8482783 211.14089405 -243 212 C-237.37548808 199.98976401 -230.63711276 188.67234717 -223.91015625 177.25585938 C-220.74183278 171.85545526 -217.62213801 166.42719204 -214.5 161 C-209.69198916 152.65172524 -204.86094118 144.31756475 -200 136 C-193.25882776 124.46297336 -186.57833053 112.8914818 -179.90869141 101.31298828 C-175.44831653 93.57094594 -170.9828765 85.83182603 -166.515625 78.09375 C-164.2922774 74.24220553 -162.07341686 70.38815051 -159.859375 66.53125 C-141.18917399 34.04410151 -119.92675981 10.35801929 -83 0 C-74.939939 -2.16681108 -66.73487458 -2.3676481 -58.43505859 -2.65917969 C-57.12722412 -2.70606934 -57.12722412 -2.70606934 -55.79296875 -2.75390625 C-55.0146167 -2.77783447 -54.23626465 -2.8017627 -53.43432617 -2.82641602 C-50.90625633 -2.96686422 -50.90625633 -2.96686422 -48.06665039 -3.50048828 C-32.30465865 -6.06788221 -15.20100003 -4.76432794 0 0 Z " fill="#00C752" transform="translate(319,95)"/>
<path d="M0 0 C26.80279521 -0.58826437 53.31769088 6.3298832 73.11572266 25.0612793 C98.96913144 50.14869321 106.76955136 84.59555749 107.39111328 119.60253906 C107.6470622 150.14577729 100.87180084 182.01354967 81.22265625 206.125 C80.5471875 206.96417969 79.87171875 207.80335938 79.17578125 208.66796875 C62.74138886 228.01136855 39.91650926 237.04308678 15.03515625 239.75 C-11.24576549 241.80611763 -39.05179114 238.20342398 -59.77734375 220.6875 C-71.73271299 210.21426152 -71.73271299 210.21426152 -74.77734375 204.125 C-75.10734375 243.065 -75.43734375 282.005 -75.77734375 322.125 C-98.21734375 322.125 -120.65734375 322.125 -143.77734375 322.125 C-143.77734375 218.505 -143.77734375 114.885 -143.77734375 8.125 C-121.33734375 8.125 -98.89734375 8.125 -75.77734375 8.125 C-75.44734375 17.365 -75.11734375 26.605 -74.77734375 36.125 C-72.46734375 33.155 -70.15734375 30.185 -67.77734375 27.125 C-49.96010191 8.02170161 -25.45965358 1.14586345 0 0 Z M-61.58984375 68.375 C-77.72228534 85.44471373 -76.53258596 111.17008351 -75.95654297 133.08496094 C-75.47500997 146.23566154 -72.02808073 159.95952102 -63.21484375 170.0625 C-62.41046875 170.743125 -61.60609375 171.42375 -60.77734375 172.125 C-60.04257812 172.91648437 -59.3078125 173.70796875 -58.55078125 174.5234375 C-46.5403783 185.78953379 -29.56161629 187.49319732 -13.8828125 187.3359375 C0.24606452 186.78426768 13.29250413 183.57371001 24.22265625 174.125 C40.55011615 155.83824491 40.16074624 130.20739347 39.22265625 107.125 C38.17692761 93.17961204 34.57057408 81.09938461 27.22265625 69.125 C26.56265625 69.125 25.90265625 69.125 25.22265625 69.125 C24.97257812 68.526875 24.7225 67.92875 24.46484375 67.3125 C20.65589703 60.60492087 11.94706265 58.05844486 5.01953125 55.88671875 C-17.33100989 49.79963003 -44.19385549 52.17873507 -61.58984375 68.375 Z " fill="#071E3B" transform="translate(723.77734375,250.875)"/>
<path d="M0 0 C24.82875371 22.40407073 34.2245699 54.09314556 35.96728516 86.6394043 C37.6171975 123.46871707 30.77149016 160.96634171 5.375 189.09741211 C-9.75255578 205.21208409 -30.1834697 212.98118102 -51.625 216.09741211 C-52.50414062 216.22889648 -53.38328125 216.36038086 -54.2890625 216.49584961 C-79.92294831 219.66793581 -108.20380507 215.32768561 -129 199.15991211 C-135.89439817 193.29571137 -141.33719654 187.50033696 -146.625 180.09741211 C-146.955 219.36741211 -147.285 258.63741211 -147.625 299.09741211 C-169.735 299.09741211 -191.845 299.09741211 -214.625 299.09741211 C-214.625 195.47741211 -214.625 91.85741211 -214.625 -14.90258789 C-192.515 -14.90258789 -170.405 -14.90258789 -147.625 -14.90258789 C-147.13 -0.54758789 -147.13 -0.54758789 -146.625 14.09741211 C-144.315 11.12741211 -142.005 8.15741211 -139.625 5.09741211 C-133.77620122 -1.61862235 -127.35362058 -6.51607351 -119.625 -10.90258789 C-118.40490234 -11.59674805 -118.40490234 -11.59674805 -117.16015625 -12.30493164 C-81.89330233 -31.11010983 -30.21699152 -26.37864238 0 0 Z M-129.625 43.09741211 C-130.22828125 43.59756836 -130.8315625 44.09772461 -131.453125 44.61303711 C-143.0415044 54.99219431 -146.62021882 72.61977374 -147.53515625 87.59350586 C-147.56480469 88.41979492 -147.59445312 89.24608398 -147.625 90.09741211 C-147.66496094 90.89276367 -147.70492187 91.68811523 -147.74609375 92.50756836 C-148.28316231 112.94776601 -145.47453624 133.99479504 -131.9609375 150.07788086 C-120.76029179 161.25385554 -103.95434655 164.02553661 -88.875 164.40991211 C-74.5820409 164.32866283 -59.9844587 162.18477927 -48.75 152.65991211 C-47.698125 151.39147461 -47.698125 151.39147461 -46.625 150.09741211 C-46.14804688 149.60885742 -45.67109375 149.12030273 -45.1796875 148.61694336 C-30.79123584 133.39699826 -31.13254057 109.49121669 -31.53613281 89.85083008 C-32.09034226 72.67947245 -35.35628254 56.55442668 -47.0625 43.34741211 C-67.73478753 25.19613525 -108.77174889 24.45866554 -129.625 43.09741211 Z " fill="#071E3B" transform="translate(1085.625,273.902587890625)"/>
<path d="M0 0 C0.84820312 0.68578125 1.69640625 1.3715625 2.5703125 2.078125 C24.02812237 20.23990765 35.33856712 46.41267428 38 74 C40.13534307 102.24842255 30.45295895 129.23776908 12.10546875 150.6484375 C11.06326172 151.81246094 11.06326172 151.81246094 10 153 C9.43925781 153.63164063 8.87851563 154.26328125 8.30078125 154.9140625 C-9.98929037 174.31128131 -37.0230348 185.3124189 -63.42797852 186.18945312 C-67.42318392 186.27463145 -71.41665523 186.28140127 -75.41259766 186.26074219 C-77.86516199 186.25004292 -80.31698924 186.26069193 -82.76953125 186.2734375 C-95.98678615 186.28620731 -109.2259827 185.56599661 -122 181.875 C-122.74435303 181.66037109 -123.48870605 181.44574219 -124.25561523 181.22460938 C-144.44701043 175.0770755 -163.75149683 161.85928247 -175.9375 144.5 C-176.35862061 143.90106934 -176.77974121 143.30213867 -177.21362305 142.68505859 C-185.08643008 131.24639423 -190.64506556 119.50597029 -194 106 C-194.18546387 105.27643311 -194.37092773 104.55286621 -194.56201172 103.80737305 C-196.27229832 96.37807725 -196.38599916 89.03696187 -196.375 81.4375 C-196.37412384 80.77392487 -196.37324768 80.11034973 -196.37234497 79.42666626 C-196.32614162 68.80772931 -195.5830335 59.03501707 -192 49 C-191.74798828 48.28569824 -191.49597656 47.57139648 -191.23632812 46.83544922 C-182.07079587 21.56429644 -164.10372613 -0.12267881 -139.80078125 -12.1796875 C-122.66979772 -20.12588827 -105.62375642 -23.16919974 -86.8125 -23.625 C-85.52408203 -23.66367187 -84.23566406 -23.70234375 -82.90820312 -23.7421875 C-52.25282416 -24.61850257 -24.24123313 -20.37668872 0 0 Z " fill="#00C752" transform="translate(196,389)"/>
<path d="M0 0 C32.40627939 -0.66559752 64.43769907 7.09092974 88.5078125 29.68359375 C111.00682045 51.70516917 119.78307375 83.60005928 120.11328125 114.375 C120.11590926 116.95833331 120.11321098 119.54167696 120.10546875 122.125 C120.10903816 123.45963636 120.11294227 124.79427187 120.1171875 126.12890625 C120.11525391 128.01416016 120.11525391 128.01416016 120.11328125 129.9375 C120.11215332 131.07832031 120.11102539 132.21914063 120.10986328 133.39453125 C119.98046875 136.125 119.98046875 136.125 118.98046875 138.125 C62.88046875 138.125 6.78046875 138.125 -51.01953125 138.125 C-46.10911733 164.12700018 -46.10911733 164.12700018 -30.09375 183.78125 C-14.82856425 193.67056054 5.12507624 194.23294785 22.54296875 191.0625 C32.87667934 188.42331492 42.20946547 183.41602443 48.98046875 175.125 C50.96046875 171.495 52.94046875 167.865 54.98046875 164.125 C76.43046875 164.125 97.88046875 164.125 119.98046875 164.125 C115.32656203 182.74062687 115.32656203 182.74062687 112.29296875 188.375 C111.95120605 189.02992432 111.60944336 189.68484863 111.25732422 190.35961914 C99.28832977 212.61370556 79.23788791 226.07833372 55.58203125 233.56640625 C17.31125508 244.85201099 -26.79666188 243.56094994 -63.01953125 226.125 C-72.1175999 221.03682087 -79.63969607 214.3920877 -87.01953125 207.125 C-88.22609375 205.95517578 -88.22609375 205.95517578 -89.45703125 204.76171875 C-112.34708187 181.11661438 -118.14170615 145.72049164 -118.01953125 114.125 C-116.98987632 84.13023536 -107.29684531 55.58707517 -87.01953125 33.125 C-86.35953125 33.125 -85.69953125 33.125 -85.01953125 33.125 C-84.75342041 32.52139648 -84.48730957 31.91779297 -84.21313477 31.29589844 C-76.74434458 17.71183579 -54.06230306 9.95925484 -40.04345703 5.71411133 C-26.90364997 1.99520653 -13.61392069 0.56357757 0 0 Z M-37.58203125 61.6875 C-45.18475875 70.45104663 -51.01953125 84.24464934 -51.01953125 96.125 C-15.70953125 96.125 19.60046875 96.125 55.98046875 96.125 C54.00742923 81.32720357 52.12902058 69.97800662 41.98046875 59.125 C41.45839844 58.56167969 40.93632812 57.99835938 40.3984375 57.41796875 C30.92407971 48.31244241 17.17473444 46.13310098 4.54296875 45.875 C-11.51021839 46.20066131 -26.18070143 49.83759327 -37.58203125 61.6875 Z " fill="#071E3B" transform="translate(2076.01953125,250.875)"/>
<path d="M0 0 C0.87978516 0.66515625 0.87978516 0.66515625 1.77734375 1.34375 C23.13703305 17.82840433 32.47179684 46.47680803 36.3125 72.08349609 C39.84059849 99.63416521 36.615554 128.10781732 24 153 C23.30583984 154.38638672 23.30583984 154.38638672 22.59765625 155.80078125 C19.31884707 162.0887893 15.55643983 167.57705772 11 173 C10.41734375 173.72832031 9.8346875 174.45664062 9.234375 175.20703125 C-10.26555691 198.59875629 -40.53005527 208.59829331 -69.875 211.75 C-107.35962852 213.93927318 -146.31260268 209.33293006 -175.87255859 184.03955078 C-198.18720901 163.95854103 -209.73660976 134.54656908 -212 105 C-213.44344592 70.29866676 -208.18490196 37.13861869 -185 10 C-183.82050781 8.50726563 -183.82050781 8.50726563 -182.6171875 6.984375 C-179.77042547 3.73821651 -176.78945697 1.17815983 -173.375 -1.4375 C-172.7574585 -1.91340576 -172.13991699 -2.38931152 -171.50366211 -2.87963867 C-152.84623737 -17.09860592 -131.28643972 -24.62157504 -108 -27 C-106.40285156 -27.16628906 -106.40285156 -27.16628906 -104.7734375 -27.3359375 C-68.23393284 -30.62538196 -28.49495745 -24.76909745 0 0 Z M-129.91796875 38.7734375 C-143.30138914 52.75611552 -144.23507224 72.69552459 -144.25 90.9375 C-144.25067474 91.67543793 -144.25134949 92.41337585 -144.25204468 93.17367554 C-144.22354395 112.76858977 -142.5351921 131.70701291 -128.44921875 146.64453125 C-116.84773597 157.58148996 -99.19046917 159.67188432 -83.890625 159.28125 C-68.07052931 158.13762862 -53.19869159 155.26896282 -42 143 C-27.73400106 125.0240764 -28.40946628 96.80631261 -30.50390625 75.2265625 C-31.90916758 63.08711059 -34.43610061 51.92761794 -42 42 C-42.70125 41.01 -43.4025 40.02 -44.125 39 C-52.4515153 29.41949143 -65.8396476 26.40280576 -77.99365234 25.32202148 C-96.43608603 24.08549423 -115.7764081 25.69753417 -129.91796875 38.7734375 Z " fill="#071E3B" transform="translate(1610,279)"/>
<path d="M0 0 C5.33673022 4.98979173 9.09191563 10.80016047 12.73046875 17.09765625 C13.10945313 17.73058594 13.4884375 18.36351562 13.87890625 19.015625 C23.74214923 36.88782128 24.89741352 58.31536015 24.84399414 78.20776367 C24.84371146 79.69705198 24.84387158 81.18634043 24.84443665 82.67562866 C24.84472147 86.68519243 24.83887593 90.69472577 24.83186269 94.70428252 C24.82557645 98.90696413 24.8250212 103.10964657 24.82383728 107.31233215 C24.82073942 115.25577395 24.81254701 123.19920185 24.80248779 131.14263755 C24.78917913 141.88716352 24.78381425 152.63169333 24.77798557 163.37622547 C24.76860597 180.28337946 24.74867676 197.19050413 24.73046875 214.09765625 C2.62046875 214.09765625 -19.48953125 214.09765625 -42.26953125 214.09765625 C-42.31851562 204.50316406 -42.3675 194.90867187 -42.41796875 185.0234375 C-42.45337117 178.93032974 -42.48926151 172.83723125 -42.52734375 166.74414062 C-42.58764485 157.08164625 -42.64600398 147.41916921 -42.69140625 137.7565918 C-42.72448933 130.71775932 -42.76440881 123.67900334 -42.81232131 116.64025563 C-42.83742529 112.91803978 -42.85925272 109.19587362 -42.87287521 105.47359657 C-42.88826237 101.30430859 -42.91892172 97.1352599 -42.95068359 92.96606445 C-42.95284378 91.75045334 -42.95500397 90.53484222 -42.95722961 89.28239441 C-43.10399148 74.11408894 -44.40439125 58.45666625 -55.26953125 47.09765625 C-55.26953125 46.43765625 -55.26953125 45.77765625 -55.26953125 45.09765625 C-56.60226775 44.42979724 -57.93573592 43.76339811 -59.26953125 43.09765625 C-59.92050781 42.76765625 -60.57148437 42.43765625 -61.2421875 42.09765625 C-75.68540802 35.18650774 -92.37393814 35.44881999 -107.33203125 40.72265625 C-119.98342135 46.2049253 -126.91746975 55.96536529 -132.01953125 68.41015625 C-137.01676825 82.25118769 -138.39400991 96.18996026 -138.47485352 110.78955078 C-138.48475311 111.91267166 -138.49465271 113.03579254 -138.50485229 114.19294739 C-138.5362134 117.87210039 -138.56112343 121.55126627 -138.5859375 125.23046875 C-138.606529 127.79450804 -138.62752602 130.3585441 -138.64891052 132.9225769 C-138.6982962 138.96064546 -138.74361936 144.99873104 -138.78693289 151.03684509 C-138.84139261 158.59360732 -138.90213997 166.15031742 -138.96289062 173.70703125 C-139.0711002 187.17053265 -139.1698796 200.63408275 -139.26953125 214.09765625 C-161.37953125 214.09765625 -183.48953125 214.09765625 -206.26953125 214.09765625 C-206.26953125 139.84765625 -206.26953125 65.59765625 -206.26953125 -10.90234375 C-184.15953125 -10.90234375 -162.04953125 -10.90234375 -139.26953125 -10.90234375 C-138.93953125 1.96765625 -138.60953125 14.83765625 -138.26953125 28.09765625 C-135.95953125 24.13765625 -133.64953125 20.17765625 -131.26953125 16.09765625 C-118.53602448 -2.07540681 -99.23341535 -13.73650315 -77.390625 -17.5859375 C-50.11030506 -21.63187372 -21.64823766 -18.14576892 0 0 Z " fill="#071E3B" transform="translate(1895.26953125,269.90234375)"/>
<path d="M0 0 C68.97 0 137.94 0 209 0 C209 49.11680309 209 49.11680309 196.56640625 61.56640625 C196.08477524 62.04899399 195.60314423 62.53158173 195.10691833 63.02879333 C194.10074371 64.03564022 193.09333854 65.04125885 192.0847168 66.0456543 C190.56508332 67.5599258 189.05087483 69.0794743 187.53710938 70.59960938 C186.54719541 71.58886239 185.5569712 72.57780508 184.56640625 73.56640625 C183.68927979 74.44240479 182.81215332 75.31840332 181.90844727 76.22094727 C179.83894968 78.24112709 177.69152491 80.13075733 175.48999023 82.00561523 C169.88112004 86.87666812 164.70422099 92.18495201 159.47212219 97.45271301 C157.55623531 99.38151763 155.63710727 101.30704603 153.71716309 103.23181152 C149.64194028 107.31838841 145.57067282 111.40889147 141.5 115.5 C136.7779468 120.24575898 132.05422931 124.98983664 127.32624817 129.72969055 C125.44763083 131.61472776 123.57208252 133.50278098 121.69665527 135.39099121 C120.53034242 136.56094093 119.36388649 137.73074804 118.19726562 138.90039062 C117.43172112 139.67368462 117.43172112 139.67368462 116.65071106 140.46260071 C112.57962762 144.53426291 108.3639176 148.1815721 104 152 C96.74 159.26 89.48 166.52 82 174 C124.24 174.33 166.48 174.66 210 175 C210 191.5 210 208 210 225 C140.37 225 70.74 225 -1 225 C-1 174 -1 174 15 158 C17.64 155.69 20.28 153.38 23 151 C25.16097592 148.90376272 27.29525277 146.800665 29.40625 144.65625 C29.97525024 144.08346313 30.54425049 143.51067627 31.13049316 142.92053223 C32.92282982 141.11614749 34.71184316 139.3085264 36.5 137.5 C49.66606801 124.18395237 49.66606801 124.18395237 53.96875 120.53125 C60.35525683 115.10238199 66.11010163 108.95438631 72 103 C85.72136187 89.12840424 85.72136187 89.12840424 91.85839844 83.91894531 C97.35164958 78.99681194 102.4405905 73.61797465 107.625 68.375 C110.01004458 65.9631715 112.39851733 63.5548127 114.7890625 61.1484375 C115.32359039 60.60561127 115.85811829 60.06278503 116.40884399 59.50350952 C116.92312958 58.98592072 117.43741516 58.46833191 117.96728516 57.93505859 C118.40948395 57.48762299 118.85168274 57.04018738 119.30728149 56.57919312 C121.77446059 54.27748009 124.40790989 52.16007509 127 50 C85.09 49.67 43.18 49.34 0 49 C0 32.83 0 16.66 0 0 Z " fill="#071E3B" transform="translate(1156,259)"/>
<path d="M0 0 C6.88308565 4.79027087 13.19466735 10.09804506 19.47338867 15.64892578 C20.52573737 16.52154568 21.58042934 17.39134743 22.63745117 18.25830078 C50.0434371 41.36086743 66.95045484 80.84381087 83.47338867 111.64892578 C90.16363094 124.09851835 97.02180445 136.42023713 104.18530273 148.60449219 C108.25656287 155.53460689 112.22991327 162.51345191 116.16088867 169.52392578 C127.23048078 189.80811631 127.23048078 189.80811631 141.67260742 207.68017578 C143.47338867 209.64892578 143.47338867 209.64892578 143.47338867 211.64892578 C144.05733398 211.90673828 144.6412793 212.16455078 145.24291992 212.43017578 C147.6557982 213.74859613 149.20976052 215.21758595 151.16088867 217.14892578 C166.49102202 231.0371159 185.75734155 237.10019384 205.47338867 241.64892578 C205.47338867 241.97892578 205.47338867 242.30892578 205.47338867 242.64892578 C179.54777021 243.46796112 156.52879011 240.10540739 134.47338867 225.64892578 C133.57362305 225.06626953 132.67385742 224.48361328 131.74682617 223.88330078 C120.49731943 216.16750077 110.63288374 206.27458206 103.47338867 194.64892578 C102.84948242 193.64603516 102.22557617 192.64314453 101.58276367 191.60986328 C94.56970706 180.17477263 87.98591605 168.47109493 81.30737305 156.83935547 C79.65401487 153.96314612 77.99459832 151.0905549 76.33276367 148.21923828 C70.95412583 138.90101537 65.74336124 129.50711029 60.66088867 120.02392578 C13.43707341 31.59407048 13.43707341 31.59407048 -70.22583008 -18.81591797 C-84.45773145 -23.04324107 -98.76208368 -25.09451867 -113.52661133 -26.35107422 C-113.52661133 -26.68107422 -113.52661133 -27.01107422 -113.52661133 -27.35107422 C-76.07002378 -35.83559764 -30.95784079 -20.92185659 0 0 Z " fill="#061F3B" transform="translate(222.526611328125,331.35107421875)"/>
<path d="M0 0 C-3.14818817 1.74260024 -6.43214884 2.86561343 -9.83764648 4.00366211 C-24.92161493 9.0636524 -37.56849962 16.56178447 -49.1875 27.49609375 C-51 29 -51 29 -53 29 C-53.26683594 29.59039062 -53.53367188 30.18078125 -53.80859375 30.7890625 C-55.02079518 33.0385904 -56.30174831 34.53516017 -58.0625 36.375 C-67.84851421 47.4243726 -74.47639584 61.07610008 -81.59375 73.8984375 C-84.31051685 78.78471961 -87.0836534 83.63019901 -89.9375 88.4375 C-94.07320117 95.40768631 -98.14115154 102.41504415 -102.1875 109.4375 C-102.82478027 110.54327393 -103.46206055 111.64904785 -104.11865234 112.78833008 C-106.0796138 116.1919253 -108.03988215 119.59591889 -110 123 C-117.87078781 136.66640364 -125.75675484 150.32303021 -133.7175293 163.93725586 C-137.4746152 170.3678877 -141.20433204 176.81352566 -144.9074707 183.27539062 C-146.20605461 185.52740808 -147.51687779 187.77241777 -148.84057617 190.00976562 C-152.71376732 196.54110027 -152.71376732 196.54110027 -155.80859375 203.45703125 C-157.52424978 207.49884949 -158.39740626 209.44560522 -162 212 C-170.48463456 214.06656601 -179.30998381 214.08731326 -188 214 C-182.30684336 202.01612703 -175.64217265 190.68093444 -168.91015625 179.25585938 C-165.74183278 173.85545526 -162.62213801 168.42719204 -159.5 163 C-154.69198916 154.65172524 -149.86094118 146.31756475 -145 138 C-138.25882776 126.46297336 -131.57833053 114.8914818 -124.90869141 103.31298828 C-120.44831653 95.57094594 -115.9828765 87.83182603 -111.515625 80.09375 C-109.2922774 76.24220553 -107.07341686 72.38815051 -104.859375 68.53125 C-86.19104219 36.04735226 -64.9265036 12.35283359 -28 2 C-18.74573851 -0.47905181 -9.50068771 -0.20048345 0 0 Z " fill="#061E3B" transform="translate(264,93)"/>
<path d="M0 0 C0 0.33 0 0.66 0 1 C-1.16402344 1.23783203 -1.16402344 1.23783203 -2.3515625 1.48046875 C-30.5820625 7.57798725 -55.12012166 21.75203579 -71.5078125 45.99609375 C-79.03390017 57.70956222 -84.12482523 70.41137639 -87 84 C-87.1750708 84.77174561 -87.3501416 85.54349121 -87.53051758 86.33862305 C-92.34520882 113.63188837 -84.94941928 141.5173294 -69.83984375 164.25 C-53.70774496 186.55611191 -29.82093625 201.8237805 -2.61328125 206.59375 C-1.75089844 206.7278125 -0.88851562 206.861875 0 207 C0 207.33 0 207.66 0 208 C-18.98303192 213.06214185 -44.18626347 205.58311994 -60.96875 196.44140625 C-73.54032223 189.11523558 -85.54211091 179.45945288 -93.9375 167.5 C-94.35862061 166.90106934 -94.77974121 166.30213867 -95.21362305 165.68505859 C-103.08643008 154.24639423 -108.64506556 142.50597029 -112 129 C-112.18546387 128.27643311 -112.37092773 127.55286621 -112.56201172 126.80737305 C-114.27229832 119.37807725 -114.38599916 112.03696187 -114.375 104.4375 C-114.37412384 103.77392487 -114.37324768 103.11034973 -114.37234497 102.42666626 C-114.32614162 91.80772931 -113.5830335 82.03501707 -110 72 C-109.74798828 71.28569824 -109.49597656 70.57139648 -109.23632812 69.83544922 C-100.07079587 44.56429644 -82.10372613 22.87732119 -57.80078125 10.8203125 C-38.85638114 2.03295908 -20.67701075 -0.37107297 0 0 Z " fill="#061F3B" transform="translate(114,366)"/>
</svg>
