<?xml version="1.0" encoding="UTF-8"?>
<svg version="1.1" xmlns="http://www.w3.org/2000/svg" width="222" height="72">
<path d="M0 0 C0.92425781 -0.03996094 1.84851563 -0.07992188 2.80078125 -0.12109375 C6.84893899 0.66224394 9.09240525 2.35818932 11.6875 5.4375 C14.33510326 9.52449097 16.64078748 13.77076177 18.9375 18.0625 C20.1711606 20.32591036 21.40550406 22.5889487 22.640625 24.8515625 C23.17848633 25.8513916 23.71634766 26.8512207 24.27050781 27.88134766 C25.70865159 30.55777663 25.70865159 30.55777663 27.6875 33.4375 C28.23352034 36.82857371 28.23377924 40.04624176 27.6875 43.4375 C25.49727082 46.26174288 23.85732793 47.85258603 20.6875 49.4375 C15.13663462 49.80755769 11.35736165 49.78761814 6.6875 46.4375 C3.70817471 42.72332772 1.37369526 38.60449874 -1.03515625 34.5078125 C-5.18267787 27.26516683 -5.18267787 27.26516683 -12.3125 23.4375 C-14.99211974 22.96577021 -17.59500911 22.67176646 -20.3125 22.4375 C-9.87601659 0.23221616 -9.87601659 0.23221616 0 0 Z " fill="#00C351" transform="translate(27.3125,10.5625)"/>
<path d="M0 0 C3.03658687 2.42926949 4.00691361 4.49159801 4.55859375 8.3359375 C4.76026308 16.8060492 4.76026308 16.8060492 2.1875 20.375 C-1.78699889 23.52147829 -3.77188792 23.75 -8.8125 23.75 C-10.1325 23.09 -11.4525 22.43 -12.8125 21.75 C-13.1425 25.05 -13.4725 28.35 -13.8125 31.75 C-16.4525 31.75 -19.0925 31.75 -21.8125 31.75 C-21.8125 21.19 -21.8125 10.63 -21.8125 -0.25 C-18.8425 -0.25 -15.8725 -0.25 -12.8125 -0.25 C-8.26187587 -1.76687471 -4.43015604 -1.96895824 0 0 Z M-12.625 5.875 C-14.34751881 8.59476654 -14.14105599 10.59586249 -13.8125 13.75 C-12.17496318 16.79444636 -12.17496318 16.79444636 -9.9375 17.5625 C-7.14898577 17.80854537 -6.01384742 17.49589623 -3.8125 15.75 C-2.62409349 12.18478048 -2.56281481 10.38808438 -3.9375 6.875 C-5.63048302 4.5240106 -5.63048302 4.5240106 -8.3125 4.25 C-10.80011062 4.59564153 -10.80011062 4.59564153 -12.625 5.875 Z " fill="#061B35" transform="translate(78.8125,28.25)"/>
<path d="M0 0 C3.82455425 1.69980189 5.47422437 3.1450536 7 7 C7.55958797 11.87640949 7.5957777 16.46352068 5.8125 21.0625 C3.55322768 23.4775842 2.24449314 24.27900152 -1 25 C-8.26078431 24.73921569 -8.26078431 24.73921569 -10 23 C-10.33 26.3 -10.66 29.6 -11 33 C-13.31 33 -15.62 33 -18 33 C-18 22.44 -18 11.88 -18 1 C-15.03 1 -12.06 1 -9 1 C-5.93570224 -0.53214888 -3.3834358 -0.22938548 0 0 Z M-9.875 7.5625 C-11.44714679 10.96881805 -10.76094211 13.40281913 -10 17 C-7.33811081 18.33094459 -5.71944939 19.13989294 -2.75 18.5625 C-0.66917351 16.98792322 -0.66917351 16.98792322 -0.0625 13.625 C0.26093181 10.1012749 0.26093181 10.1012749 -1.125 7.5625 C-2.9275469 5.80775081 -2.9275469 5.80775081 -5.5 5.5 C-8.0724531 5.80775081 -8.0724531 5.80775081 -9.875 7.5625 Z " fill="#061C37" transform="translate(105,27)"/>
<path d="M0 0 C5.46341463 2.92682927 5.46341463 2.92682927 7 6 C7.13559318 9.00474497 7.04299016 11.99068847 7 15 C1.72 15 -3.56 15 -9 15 C-8.01 16.485 -8.01 16.485 -7 18 C-4.5 18.41666667 -4.5 18.41666667 -2 18 C-1.34 17.34 -0.68 16.68 0 16 C3.625 15.875 3.625 15.875 7 16 C6.6655974 19.09322404 6.4404882 20.58887768 4.125 22.75 C0.03694659 25.1547373 -3.32774163 25.31676328 -8 25 C-11.44173874 23.74244162 -13.45222961 22.62080644 -15.875 19.875 C-17.8335393 14.86984401 -17.86726412 10.09969207 -15.8125 5.125 C-11.37439305 -0.0782978 -6.59119239 -1.07729507 0 0 Z M-9 7 C-9 7.99 -9 8.98 -9 10 C-6.03 10 -3.06 10 0 10 C-0.33 8.68 -0.66 7.36 -1 6 C-4.40254489 4.7848054 -5.93251126 5.13759612 -9 7 Z " fill="#061A34" transform="translate(212,27)"/>
<path d="M0 0 C3.13615526 2.11508146 4.37239069 3.25396893 5.6875 6.8125 C6.07595759 11.89944457 5.43121314 14.92367211 2.125 18.875 C-2.00963755 21.20543207 -4.68801972 21.66170596 -9.3125 20.8125 C-13.38587573 19.27537708 -16.41348686 17.82152774 -18.3125 13.8125 C-19.01860472 9.16615663 -18.95910396 5.88274104 -16.5 1.8125 C-11.80013592 -2.48451858 -5.66003123 -2.0290678 0 0 Z " fill="#00BF4F" transform="translate(18.3125,39.1875)"/>
<path d="M0 0 C3.37134052 2.40810037 4.39645029 3.90028034 5.625 7.875 C5.98466653 13.21861708 5.55802958 16.73203877 2.125 20.9375 C-1.73257741 23.53697063 -5.78816087 24.13824468 -10.375 23.875 C-14.42448538 23.05573995 -16.85159345 21.60101553 -19.3125 18.1875 C-20.58098376 14.23281534 -21.11936619 10.9812838 -20.375 6.875 C-15.88246509 -1.78917446 -8.85463872 -2.95154624 0 0 Z M-12.375 6.875 C-12.77587331 8.78206576 -12.77587331 8.78206576 -12.625 10.875 C-12.60953125 11.57625 -12.5940625 12.2775 -12.578125 13 C-12.47543334 14.96436628 -12.47543334 14.96436628 -11.375 16.875 C-7.95843976 17.04177282 -7.95843976 17.04177282 -4.375 16.875 C-2.01089512 14.93768472 -2.01089512 14.93768472 -2.0625 11.4375 C-2.08545674 7.99302311 -2.08545674 7.99302311 -3.625 5.9375 C-7.12254972 3.81398767 -9.18935932 4.75123954 -12.375 6.875 Z " fill="#061B35" transform="translate(159.375,28.125)"/>
<path d="M0 0 C2.8442752 0.03568087 4.06582297 0.1844816 6.625 1.5625 C9.17193504 4.31318984 9.31053521 6.90203583 9.28515625 10.48046875 C9.28193359 11.28291016 9.27871094 12.08535156 9.27539062 12.91210938 C9.26701172 13.74548828 9.25863281 14.57886719 9.25 15.4375 C9.24548828 16.28248047 9.24097656 17.12746094 9.23632812 17.99804688 C9.22455403 20.08206155 9.2066189 22.16603977 9.1875 24.25 C6.5475 24.25 3.9075 24.25 1.1875 24.25 C0.8575 18.97 0.5275 13.69 0.1875 8.25 C-3.44869656 7.16915479 -3.44869656 7.16915479 -5.8125 7.25 C-6.1425 12.86 -6.4725 18.47 -6.8125 24.25 C-9.4525 24.25 -12.0925 24.25 -14.8125 24.25 C-14.8125 16.66 -14.8125 9.07 -14.8125 1.25 C-11.5125 1.25 -8.2125 1.25 -4.8125 1.25 C-3.8125 0.25 -3.8125 0.25 0 0 Z " fill="#061A34" transform="translate(182.8125,26.75)"/>
<path d="M0 0 C7.26 0 14.52 0 22 0 C22 6 22 6 20.35546875 8.01171875 C19.64003906 8.56472656 18.92460937 9.11773437 18.1875 9.6875 C17.47980469 10.24824219 16.77210938 10.80898438 16.04296875 11.38671875 C15.36878906 11.91910156 14.69460937 12.45148437 14 13 C13.01 13.99 12.02 14.98 11 16 C14.63 16.33 18.26 16.66 22 17 C22 18.98 22 20.96 22 23 C14.74 23 7.48 23 0 23 C0 17 0 17 2.40625 14.0078125 C3.42256567 13.03109355 4.45445184 12.0703605 5.5 11.125 C6.02464844 10.62742187 6.54929687 10.12984375 7.08984375 9.6171875 C8.38004502 8.39736085 9.68831732 7.19669751 11 6 C7.37 5.67 3.74 5.34 0 5 C0 3.35 0 1.7 0 0 Z " fill="#061B36" transform="translate(115,28)"/>
<path d="M0 0 C5.81870139 0.35624702 9.65960744 1.98170101 14 6 C16.03010809 8.71170536 17.64450595 11.58415514 19.25 14.5625 C20.08653245 16.06492255 20.9250151 17.56626123 21.765625 19.06640625 C22.34086914 20.10112061 22.34086914 20.10112061 22.92773438 21.15673828 C24.13579104 23.2334295 25.48004025 25.13952979 27 27 C23.06786349 25.72238662 21.27948609 24.58744321 19.125 21.0625 C18.36509766 19.86753906 18.36509766 19.86753906 17.58984375 18.6484375 C16.49027644 16.81672587 15.42176482 14.96614336 14.37890625 13.1015625 C10.54572927 6.49752086 7.45030872 3.11176551 0 1 C0 0.67 0 0.34 0 0 Z " fill="#042732" transform="translate(12,32)"/>
<path d="M0 0 C0.99 0.33 1.98 0.66 3 1 C2.26910156 1.49113281 1.53820312 1.98226563 0.78515625 2.48828125 C-3.27873332 6.15319148 -5.24615946 10.58892101 -7.69335938 15.41992188 C-8.06396484 16.12052734 -8.43457031 16.82113281 -8.81640625 17.54296875 C-9.14068604 18.18258545 -9.46496582 18.82220215 -9.79907227 19.48120117 C-11.34682132 21.43862074 -12.58275599 21.63169726 -15 22 C-6.78640777 4.52427184 -6.78640777 4.52427184 0 0 Z " fill="#051E31" transform="translate(22,11)"/>
<path d="M0 0 C1.8871875 0.0309375 1.8871875 0.0309375 3.8125 0.0625 C3.8125 0.3925 3.8125 0.7225 3.8125 1.0625 C2.554375 1.31 1.29625 1.5575 0 1.8125 C-2.59336462 2.4872338 -4.05447158 2.95857154 -6.1875 4.625 C-7.72064689 8.36204555 -7.72731947 12.08045511 -7.1875 16.0625 C-6.23975874 18.28310641 -6.23975874 18.28310641 -5.1875 20.0625 C-8.34865776 18.69266497 -9.1802092 18.0734362 -11.1875 15.0625 C-11.92196576 10.50198005 -11.78012059 7.04338926 -9.375 3.0625 C-6.33669866 0.28462449 -3.96556468 -0.06500926 0 0 Z " fill="#062138" transform="translate(11.1875,37.9375)"/>
<path d="M0 0 C0 0.33 0 0.66 0 1 C-1.794375 1.4021875 -1.794375 1.4021875 -3.625 1.8125 C-7.37855376 2.74087006 -10.60088806 4.13048843 -14 6 C-13.08486681 3.71216703 -12.34515354 2.26550272 -10.375 0.75 C-6.86146845 -0.35953628 -3.67700382 -0.12256679 0 0 Z " fill="#04242D" transform="translate(15,38)"/>
<path d="M0 0 C0.33 0 0.66 0 1 0 C1.12375 1.0725 1.2475 2.145 1.375 3.25 C1.89643936 6.37863615 2.40088254 8.33480424 4 11 C2.0625 10.1875 2.0625 10.1875 0 9 C-1.15941038 5.52176885 -0.70820884 3.54104422 0 0 Z " fill="#043438" transform="translate(2,47)"/>
</svg>
